# xmcd
#
# Track frame offsets:
#	150
#	15603
#	25258
#	37650
#	56183
#	65230
#	78940
#	94768
#	107685
#	120828
#	133658
#
# Disc length: 1979 seconds
#
# Revision: 5
# Processed by: cddbd v1.5.2PL0 Copyright (c) Steve Scherf et al.
# Submitted via: EasyCDDAExtractor 8.2.3.1
#
DISCID=8607b90b
DTITLE=Tamra Rosanes - Country Roots
DYEAR=1995
DGENRE=Country
TTITLE0=I Just Want To Dance With You (Duet with John Prine)
TTITLE1=Ready For The Times To Get Better
TTITLE2=What's A Nice Boy Like You
TTITLE3=Speed Of The Sound Of Loneliness
TTITLE4=Too Late To Turn Back Now
TTITLE5=Memories Ain't What They Used To Be
TTITLE6=Dreaming My Dreams With You
TTITLE7=Be My Friend Tonight
TTITLE8=Lost In Love
TTITLE9=Baby Is Gone
TTITLE10=Coming To The Dance
EXTD=\nRecord number: EMI 8362292\n
EXTT0=
EXTT1=
EXTT2=
EXTT3=
EXTT4=
EXTT5=
EXTT6=
EXTT7=
EXTT8=
EXTT9=
EXTT10=
PLAYORDER=
